<?xml version="1.0" encoding="UTF-8"?>
<svg width="19px" height="19px" viewBox="0 0 19 19" version="1.1" xmlns="http://www.w3.org/2000/svg" xmlns:xlink="http://www.w3.org/1999/xlink">
    <!-- Generator: Sketch 51.3 (57544) - http://www.bohemiancoding.com/sketch -->
    <title>Fill 1023</title>
    <desc>Created with Sketch.</desc>
    <defs></defs>
    <g id="Page-1" stroke="none" stroke-width="1" fill="none" fill-rule="evenodd" opacity="0.293024554">
        <path d="M19,11.1360267 C19,9.06882667 17.4981108,7.31626667 15.439371,6.74107333 C16.8274786,6.21376 17.8063328,4.96204 17.8063328,3.50486667 C17.8063328,1.57218667 16.0864431,0 13.9724062,0 C12.3564582,0 10.9716768,0.918586667 10.4078967,2.21362667 C9.8697555,1.53406 8.99498162,1.09047333 8.00864358,1.09047333 C6.82329171,1.09047333 5.79939604,1.73026667 5.32680749,2.65151333 C4.87306705,2.03895333 4.10597683,1.63602667 3.23771664,1.63602667 C1.8475302,1.63602667 0.716228045,2.67013333 0.716228045,3.94123333 C0.716228045,4.73632 1.15915855,5.43894 1.83159246,5.85339333 C0.748657875,6.33257333 0,7.34742667 0,8.51909333 C0,8.55595333 0.00138589018,8.59129333 0.00318754741,8.62549333 C0.000970123125,8.64373333 0,8.66260667 0,8.68135333 L0,12.93406 C0,13.2138667 0.248074342,13.4407267 0.554356072,13.4407267 L4.17402404,13.4407267 L4.17402404,14.78732 C4.17402404,15.0671267 4.42223697,15.2939867 4.72838011,15.2939867 L8.94481239,15.2939867 L8.94481239,18.4933333 C8.94481239,18.77314 9.19302533,19 9.49916847,19 L18.4456439,19 C18.7516485,19 19,18.77314 19,18.4933333 L19,11.4069667 C19,11.3774533 18.9970896,11.3488267 18.992239,11.3210867 C18.9959809,11.2642133 19,11.2017667 19,11.1360267 Z M13.9724062,1.01333333 C15.4751269,1.01333333 16.6976206,2.13104 16.6976206,3.50486667 C16.6976206,4.87793333 15.4751269,5.99488 13.9724062,5.99488 C12.4689925,5.99488 11.2456673,4.87793333 11.2456673,3.50486667 C11.2456673,2.13104 12.4689925,1.01333333 13.9724062,1.01333333 Z M10.5786383,5.13392667 C10.9948211,5.85466 11.6777878,6.42732 12.5069659,6.74170667 C12.0164994,6.87901333 11.5498702,7.08484667 11.1239861,7.35401333 C10.7015668,6.81568 10.1201859,6.4011 9.45856188,6.15169333 C9.92477534,5.91102667 10.312686,5.55851333 10.5786383,5.13392667 Z M8.00864358,2.10380667 C9.0293517,2.10380667 9.85977709,2.86216 9.85977709,3.79455333 C9.85977709,4.72745333 9.0293517,5.48644 8.00864358,5.48644 C6.98779687,5.48644 6.15723289,4.72745333 6.15723289,3.79455333 C6.15723289,2.86216 6.98779687,2.10380667 8.00864358,2.10380667 Z M5.41661318,5.09934667 C5.6825655,5.53888 6.07865291,5.90355333 6.55692362,6.15068 C6.2529979,6.26506 5.96445556,6.4144 5.70044348,6.59654667 C5.40705053,6.28228667 5.04630332,6.03047333 4.64411799,5.85314 C4.95968518,5.65870667 5.22411303,5.40043333 5.41661318,5.09934667 Z M3.23771664,2.64936 C4.01672551,2.64936 4.65077026,3.22873333 4.65077026,3.94123333 C4.65077026,4.65322667 4.01672551,5.2326 3.23771664,5.2326 C2.45870777,5.2326 1.82494019,4.65322667 1.82494019,3.94123333 C1.82494019,3.22873333 2.45870777,2.64936 3.23771664,2.64936 Z M17.8912879,11.52388 L17.8912879,17.9866667 L10.0535245,17.9866667 L10.0535245,14.78732 C10.0535245,14.5075133 9.80531161,14.2806533 9.49916847,14.2806533 L5.28273618,14.2806533 L5.28273618,12.93406 C5.28273618,12.6542533 5.03424608,12.4273933 4.72838011,12.4273933 L1.10871214,12.4273933 L1.10871214,8.76748667 C1.11647313,8.72682667 1.11882914,8.68553333 1.11564159,8.64373333 C1.11203828,8.59800667 1.10871214,8.55443333 1.10871214,8.51909333 C1.10871214,7.44584667 2.06386765,6.57260667 3.23771664,6.57260667 C4.0231006,6.57260667 4.74210043,6.96565333 5.11393476,7.59797333 C5.19875124,7.74224667 5.3545253,7.84016 5.53219642,7.86068 C5.70986754,7.88132667 5.88753866,7.82242667 6.00894264,7.70234667 C6.5330863,7.18478667 7.24321643,6.89978667 8.00864358,6.89978667 C9.05485207,6.89978667 10.0209561,7.46016 10.4692916,8.32732 C10.544684,8.47260667 10.6906183,8.57647333 10.8628844,8.60763333 C11.035012,8.6393 11.2132374,8.59382667 11.3435111,8.48590667 C12.0668072,7.88525333 13.0007586,7.5544 13.9724062,7.5544 C16.1331476,7.5544 17.8912879,9.16104 17.8912879,11.1360267 C17.8912879,11.1801067 17.8874074,11.2310267 17.8835269,11.2847333 C17.8810323,11.3169067 17.8788148,11.3489533 17.876736,11.3807467 C17.8741028,11.4293867 17.8792306,11.4773933 17.8912879,11.52388 Z" id="Fill-1023" fill="#010000"></path>
    </g>
</svg>